<?xml version="1.0" encoding="UTF-8" standalone="no"?>
<!-- Created with Inkscape (http://www.inkscape.org/) -->

<svg
   version="1.1"
   id="svg48"
   width="629.33331"
   height="629.33331"
   viewBox="0 0 629.33331 629.33331"
   sodipodi:docname="note.svg"
   inkscape:version="1.2.2 (b0a84865, 2022-12-01)"
   xmlns:inkscape="http://www.inkscape.org/namespaces/inkscape"
   xmlns:sodipodi="http://sodipodi.sourceforge.net/DTD/sodipodi-0.dtd"
   xmlns="http://www.w3.org/2000/svg"
   xmlns:svg="http://www.w3.org/2000/svg">
  <defs
     id="defs52" />
  <sodipodi:namedview
     id="namedview50"
     pagecolor="#ffffff"
     bordercolor="#000000"
     borderopacity="0.25"
     inkscape:showpageshadow="2"
     inkscape:pageopacity="0.0"
     inkscape:pagecheckerboard="0"
     inkscape:deskcolor="#d1d1d1"
     showgrid="false"
     inkscape:zoom="1.5635594"
     inkscape:cx="306.99186"
     inkscape:cy="314.66666"
     inkscape:window-width="1387"
     inkscape:window-height="1134"
     inkscape:window-x="0"
     inkscape:window-y="25"
     inkscape:window-maximized="0"
     inkscape:current-layer="g54" />
  <g
     inkscape:groupmode="layer"
     inkscape:label="Image"
     id="g54">
    <path
       style="fill:#000000;stroke-width:1.33333"
       d="m 27.85366,629.41658 c -1.46666,-0.60331 -3.86666,-2.43073 -5.33333,-4.06095 -2.6468,-2.94194 -2.66667,-4.84092 -2.66667,-254.9334 V 118.45285 l 4.35437,-3.89062 4.35437,-3.89063 h 200.75673 c 110.41621,0 200.55674,0.45172 200.31228,1.00382 -0.24444,0.5521 -6.50103,6.8521 -13.90355,14 L 402.26874,138.6716 H 224.72786 47.18699 V 370.67159 602.67158 H 279.18698 511.18697 V 425.13071 247.58983 l 12.99617,-13.45912 c 7.14791,-7.40252 13.45367,-13.66103 14.0128,-13.90782 0.55915,-0.2468 0.86087,90.18962 0.6705,200.9698 l -0.34614,201.41852 -3.69689,3.69685 -3.69689,3.69685 -250.3031,0.2543 C 143.15672,630.39907 29.32033,630.01989 27.85366,629.41658 Z M 193.20048,454.37217 c 0.41138,-1.66865 4.56141,-22.46772 9.22228,-46.22014 l 8.4743,-43.18623 155.12917,-155.13347 155.12918,-155.133464 10.36371,10.30292 10.3637,10.30292 -151.67675,151.681144 -151.67675,151.68113 16.33113,16.33114 16.33114,16.33113 151.68113,-151.67675 151.68113,-151.67675 10.30292,10.36371 10.30293,10.3637 -155.13346,155.12918 -155.13347,155.12917 -43.18623,8.4743 c -23.75242,4.66087 -44.55149,8.8109 -46.22014,9.22228 -2.61906,0.64571 -2.93163,0.33314 -2.28592,-2.28592 z M 578.51104,70.613746 542.5203,34.555896 554.65704,22.735836 c 6.6752,-6.50103 15.0752,-13.2928503 18.66666,-15.0929203 27.0968,-13.58113 57.74757,-3.55545 70.40387,23.0286803 3.7148,7.80281 4.12606,9.92923 4.12606,21.33333 0,17.42104 -4.01376,25.93257 -20.09604,42.61537 -6.38961,6.628214 -11.9861,12.051304 -12.43664,12.051304 -0.45054,0 -17.01499,-16.226044 -36.80991,-36.057854 z"
       id="path216" />
  </g>
</svg>
