<?xml version="1.0" encoding="UTF-8" standalone="no"?>
<!-- Created with Inkscape (http://www.inkscape.org/) -->

<svg
   version="1.1"
   id="svg48"
   width="1338.6666"
   height="349.2796"
   viewBox="0 0 1338.6666 349.2796"
   sodipodi:docname="Property Finder Logo.svg"
   inkscape:version="1.2.2 (b0a84865, 2022-12-01)"
   xmlns:inkscape="http://www.inkscape.org/namespaces/inkscape"
   xmlns:sodipodi="http://sodipodi.sourceforge.net/DTD/sodipodi-0.dtd"
   xmlns="http://www.w3.org/2000/svg"
   xmlns:svg="http://www.w3.org/2000/svg">
  <defs
     id="defs52" />
  <sodipodi:namedview
     id="namedview50"
     pagecolor="#ffffff"
     bordercolor="#000000"
     borderopacity="0.25"
     inkscape:showpageshadow="2"
     inkscape:pageopacity="0.0"
     inkscape:pagecheckerboard="0"
     inkscape:deskcolor="#d1d1d1"
     showgrid="false"
     inkscape:zoom="0.9285358"
     inkscape:cx="667.71793"
     inkscape:cy="175.5452"
     inkscape:window-width="1943"
     inkscape:window-height="1134"
     inkscape:window-x="0"
     inkscape:window-y="25"
     inkscape:window-maximized="0"
     inkscape:current-layer="g54" />
  <g
     inkscape:groupmode="layer"
     inkscape:label="Image"
     id="g54"
     transform="translate(-4.3078576,-0.31010827)">
    <path
       style="fill:#000000;stroke-width:1.33333"
       d="m 4.3078576,346.25637 v -3.33333 H 673.64121 1342.9745 v 3.33333 3.33334 H 673.64121 4.3078576 Z M 219.6412,293.09129 c -3.66667,-1.72646 -8.25495,-4.63476 -10.19617,-6.46285 -20.36358,-19.17692 -19.7835,-62.58656 1.08177,-80.95289 14.36968,-12.64871 38.07015,-12.24984 52.60925,0.88537 11.0195,9.95544 17.04946,30.40435 14.42588,48.92121 -2.58782,18.26448 -12.09206,32.17992 -26.07168,38.17228 -8.85994,3.79782 -23.12288,3.54564 -31.84905,-0.56312 z m 24.28673,-1.62724 c 8.36752,-2.78786 15.27834,-9.61945 19.93472,-19.7062 3.50504,-7.59268 3.76984,-9.34237 3.75848,-24.83481 -0.0107,-14.23407 -0.4562,-17.77092 -3.05408,-24.23233 -7.3561,-18.29594 -24.39108,-26.85823 -39.64768,-19.92812 -25.27025,11.47869 -28.81291,65.9969 -5.47524,84.25916 4.00788,3.13625 11.96474,6.41084 15.81714,6.50944 1.2577,0.0321 5.1577,-0.89803 8.66666,-2.06714 z M 9.6411911,292.92304 c 0,-1.1 1.1190849,-2 2.4868549,-2 1.36777,0 4.067771,-1.24355 6,-2.76344 l 3.513146,-2.76344 v -38.46084 c 0,-21.15347 -0.361694,-39.4034 -0.803764,-40.55543 -0.44207,-1.15201 -3.14207,-2.72421 -6,-3.49377 -10.9629346,-2.95201 -4.9713907,-3.96308 23.484962,-3.96308 26.462172,0 29.147474,0.21917 34.707862,2.83287 16.664145,7.83306 17.153323,33.9154 0.816209,43.5193 -5.805291,3.4127 -7.386993,3.67756 -24.538602,4.10903 l -18.333334,0.46119 v 17.29313 c 0,9.51121 0.618936,18.44961 1.375414,19.86311 0.842538,1.57429 3.425396,2.89778 6.666667,3.41609 3.184336,0.50919 5.291253,1.57463 5.291253,2.67569 0,1.45674 -3.532351,1.82959 -17.333334,1.82959 -14.518519,0 -17.3333339,-0.32479 -17.3333339,-2 z M 65.777349,242.57895 c 8.343217,-5.54451 13.067447,-20.22658 9.034263,-28.0769 -3.350698,-6.5219 -8.191491,-10.1302 -15.674509,-11.68366 -8.576055,-1.78038 -23.264232,-0.96743 -26.175547,1.44874 -1.597549,1.32586 -1.987031,5.53732 -1.987031,21.48583 v 19.83675 h 15.136157 c 13.48632,0 15.62998,-0.32818 19.666667,-3.01076 z m 31.863845,50.49248 c 0,-1.05926 1.990066,-2.22495 4.650466,-2.72404 2.55775,-0.47984 5.25775,-2.00718 6,-3.39407 1.45017,-2.70967 1.95275,-76.90689 0.54577,-80.57343 -0.44207,-1.15201 -3.14207,-2.72421 -6,-3.49377 -10.747874,-2.89409 -5.088187,-3.96308 20.98241,-3.96308 16.51413,0 28.15133,0.59104 31.52216,1.60096 14.90694,4.46623 21.11918,21.77539 12.71956,35.44049 -2.8281,4.60092 -9.4811,8.66536 -16.7537,10.23511 -2.38333,0.51443 -4.33333,1.1066 -4.33333,1.31595 0,0.45145 18.7228,33.44348 21.36387,37.64594 2.03092,3.23159 6.7289,5.76155 10.69886,5.76155 1.43216,0 2.60394,0.9 2.60394,2 0,1.58507 -1.9139,2 -9.22508,2 h -9.22507 l -13.1368,-23.66667 -13.1368,-23.66666 -8.97146,-0.39426 -8.97146,-0.39425 v 18.81524 c 0,10.34839 0.60729,19.94997 1.34954,21.33688 0.74224,1.38689 3.44224,2.91423 6,3.39407 2.66039,0.49909 4.65046,1.66478 4.65046,2.72404 0,1.48117 -3.33437,1.85161 -16.66667,1.85161 -13.3323,0 -16.666666,-0.37044 -16.666666,-1.85161 z m 55.601936,-52.76108 c 5.78337,-3.52632 8.89233,-9.91272 8.93461,-18.35331 0.0399,-7.97311 -2.77318,-12.78127 -9.92954,-16.97153 -3.50584,-2.05278 -7.03164,-2.61742 -16.65119,-2.66667 -17.02959,-0.0872 -16.62248,-0.62845 -16.62248,22.10079 v 18.50341 l 15,-0.005 c 12.52467,-0.004 15.70441,-0.4345 19.2686,-2.60771 z m 139.06474,52.61269 c 0,-1.1 1.11908,-2 2.48685,-2 1.36777,0 4.06777,-1.24355 6,-2.76344 l 3.51315,-2.76344 v -38.46084 c 0,-21.15347 -0.3617,-39.4034 -0.80376,-40.55543 -0.44208,-1.15201 -3.14208,-2.72421 -6,-3.49377 -10.96294,-2.95201 -4.9714,-3.96308 23.48496,-3.96308 26.46217,0 29.14747,0.21917 34.70785,2.83287 16.66415,7.83306 17.15334,33.9154 0.81622,43.5193 -5.8053,3.4127 -7.38699,3.67756 -24.53861,4.10903 l -18.33333,0.46119 v 17.29313 c 0,9.51121 0.61893,18.44961 1.37541,19.86311 0.84254,1.57429 3.4254,2.89778 6.66667,3.41609 3.18433,0.50919 5.29125,1.57463 5.29125,2.67569 0,1.45674 -3.53234,1.82959 -17.33333,1.82959 -14.51852,0 -17.33333,-0.32479 -17.33333,-2 z m 56.13616,-50.34409 c 8.34321,-5.54451 13.06744,-20.22658 9.03425,-28.0769 -3.35069,-6.5219 -8.19148,-10.1302 -15.6745,-11.68366 -8.57606,-1.78038 -23.26423,-0.96743 -26.17555,1.44874 -1.59755,1.32586 -1.98703,5.53732 -1.98703,21.48583 v 19.83675 h 15.13616 c 13.48632,0 15.62998,-0.32818 19.66667,-3.01076 z m 33.19717,50.34409 c 0,-1.1 1.11908,-2 2.48686,-2 1.36777,0 4.06777,-1.24355 6,-2.76344 l 3.51314,-2.76344 v -39.02991 c 0,-35.48813 -0.21173,-39.21912 -2.33333,-41.115 -1.28333,-1.14678 -3.78633,-2.28978 -5.56223,-2.53997 -1.77589,-0.2502 -3.47589,-1.20491 -3.77778,-2.12157 -0.4298,-1.3051 7.0837,-1.66667 34.63329,-1.66667 h 35.18216 l 4.26228,10.42469 c 6.51648,15.93802 5.56877,17.58803 -3.4904,6.077 -3.15889,-4.01384 -7.75591,-7.96096 -11.14525,-9.56961 -10.50323,-4.98507 -31.77472,-5.40229 -36.46183,-0.71519 -1.54659,1.5466 -1.97357,5.84732 -1.97357,19.87835 v 17.90476 l 10.33333,-0.0752 c 16.78148,-0.12227 22.92763,-3.75727 22.98035,-13.59141 0.012,-2.36164 0.73149,-3.66667 2.01965,-3.66667 1.68253,0 2,2.96296 2,18.66667 0,15.7037 -0.31747,18.66666 -2,18.66666 -1.34444,0 -2,-1.34473 -2,-4.10256 0,-2.75664 -1.27863,-5.3812 -3.89744,-8 -3.76507,-3.76513 -4.33108,-3.89749 -16.66667,-3.89749 h -12.76922 v 19.96927 c 0,25.00946 -0.35558,24.59313 20.34857,23.82672 11.95244,-0.44246 14.4692,-0.96448 19.84871,-4.1171 3.38837,-1.9857 8.87178,-6.6258 12.18537,-10.3113 3.31359,-3.68551 6.38305,-6.70092 6.82103,-6.70092 1.64266,0 0.67245,4.1459 -3.4123,14.5814 l -4.20861,10.75193 h -36.45805 c -31.51827,0 -36.45806,-0.27099 -36.45806,-2 z m 94.66667,0.14839 c 0,-1.05926 1.99007,-2.22495 4.65047,-2.72404 2.55775,-0.47984 5.25775,-2.00718 6,-3.39407 1.45016,-2.70967 1.95275,-76.90689 0.54577,-80.57343 -0.44208,-1.15201 -3.14208,-2.72421 -6,-3.49377 -10.74788,-2.89409 -5.08818,-3.96308 20.9824,-3.96308 16.51414,0 28.15134,0.59104 31.52216,1.60096 14.90695,4.46623 21.11919,21.77539 12.71956,35.44049 -2.82809,4.60092 -9.48109,8.66536 -16.75369,10.23511 -2.38333,0.51443 -4.33333,1.1066 -4.33333,1.31595 0,0.45145 18.7228,33.44348 21.36386,37.64594 2.03092,3.23159 6.72891,5.76155 10.69887,5.76155 1.43216,0 2.60393,0.9 2.60393,2 0,1.58507 -1.91389,2 -9.22508,2 h -9.22506 l -13.1368,-23.66667 -13.1368,-23.66666 -8.97147,-0.39426 -8.97145,-0.39425 v 18.81524 c 0,10.34839 0.60729,19.94997 1.34953,21.33688 0.74225,1.38689 3.44225,2.91423 6,3.39407 2.6604,0.49909 4.65047,1.66478 4.65047,2.72404 0,1.48117 -3.33438,1.85161 -16.66667,1.85161 -13.33229,0 -16.66667,-0.37044 -16.66667,-1.85161 z m 55.60194,-52.76108 c 5.78337,-3.52632 8.89233,-9.91272 8.93461,-18.35331 0.0399,-7.97311 -2.77319,-12.78127 -9.92955,-16.97153 -3.50584,-2.05278 -7.03164,-2.61742 -16.65118,-2.66667 -17.02959,-0.0872 -16.62248,-0.62845 -16.62248,22.10079 v 18.50341 l 15,-0.005 c 12.52466,-0.004 15.70441,-0.4345 19.2686,-2.60771 z m 67.06473,52.61269 c 0,-1.37096 1.37444,-2 4.36999,-2 2.4035,0 5.70351,-0.93403 7.33333,-2.0756 2.95116,-2.06708 2.96335,-2.24141 2.96335,-42.4 0,-29.58564 -0.42609,-40.75049 -1.6,-41.9244 -0.88,-0.88 -5.10391,-1.6 -9.38646,-1.6 -9.98765,0 -16.24024,3.16153 -24.1618,12.21705 -3.35652,3.83702 -6.43613,6.643 -6.8436,6.23554 -0.40746,-0.40746 1.00059,-5.47598 3.12902,-11.26338 l 3.86984,-10.52254 40.07415,-0.35275 40.07414,-0.35276 3.68426,11.31308 c 2.02634,6.22219 3.2214,11.77592 2.65568,12.34164 -0.56571,0.56572 -1.59751,0.012 -2.29287,-1.2306 -3.58424,-6.40468 -10.46323,-13.98145 -14.57175,-16.04988 -5.88266,-2.9616 -18.27084,-3.10571 -22.33393,-0.2598 -2.94984,2.06615 -2.96335,2.25728 -2.96335,41.9244 0,39.66712 0.0135,39.85825 2.96335,41.9244 1.62983,1.14157 4.92983,2.0756 7.33333,2.0756 2.99555,0 4.36999,0.62904 4.36999,2 0,1.68583 -3.03704,2 -19.33333,2 -16.2963,0 -19.33334,-0.31417 -19.33334,-2 z m 101.33334,0 c 0,-1.23019 1.24961,-2 3.24653,-2 1.7856,0 4.7856,-0.58515 6.66667,-1.30033 3.41422,-1.29808 3.42013,-1.32855 3.42013,-17.6228 v -16.32247 l -12.81545,-24.04387 c -13.81886,-25.92642 -15.68867,-28.71053 -19.28215,-28.71053 -3.29921,0 -6.56907,-1.39839 -6.56907,-2.80932 0,-0.65487 7.8,-1.19068 17.33334,-1.19068 17.3552,0 22.90794,1.66731 11.33333,3.40303 -4.01277,0.60176 -6,1.55537 -6,2.87924 0,2.34365 21.59589,43.05106 22.83923,43.05106 0.70986,0 16.9385,-27.81086 22.41861,-38.41856 2.13787,-4.13821 0.1728,-6.34518 -6.61635,-7.43081 -10.54214,-1.68576 -5.36777,-3.48396 10.02518,-3.48396 9.58265,0 15.33333,0.51256 15.33333,1.36667 0,0.75166 -1.75797,1.71826 -3.90661,2.14798 -5.61408,1.12282 -7.70532,3.89926 -21.95767,29.15202 l -12.79279,22.66666 -0.005,16.25774 c -0.004,15.29153 0.17131,16.38108 2.95855,18.33333 1.62982,1.14157 4.62982,2.0756 6.66666,2.0756 2.40295,0 3.70332,0.70227 3.70332,2 0,1.67901 -2.88889,2 -18,2 -15.1111,0 -18,-0.32099 -18,-2 z m 114.66667,0 c 0,-1.24444 1.25925,-2 3.33333,-2 1.83333,0 4.53333,-1.2 6,-2.66667 2.54372,-2.54372 2.66667,-4.44444 2.66667,-41.22428 0,-21.20669 -0.3617,-39.50017 -0.80376,-40.6522 -0.44208,-1.15201 -3.14208,-2.72421 -6,-3.49377 -11.69222,-3.14839 -4.77691,-4.00307 29.54766,-3.65188 l 34.74393,0.35547 4.58941,10.55584 c 2.52419,5.80572 4.58943,10.75572 4.58943,11 0,1.89432 -3.53626,-0.59975 -8.74336,-6.16656 -9.38394,-10.03219 -15.83787,-12.61276 -31.69445,-12.67291 -17.11564,-0.0649 -16.89553,-0.3542 -16.89553,22.20513 v 17.0785 h 13.18563 c 15.68961,0 18.55416,-1.50144 19.74058,-10.34696 0.47279,-3.52486 1.44508,-5.65304 2.58268,-5.65304 1.45982,0 1.82444,3.86386 1.82444,19.33333 0,15.46947 -0.36462,19.33333 -1.82444,19.33333 -1.13116,0 -2.10624,-2.101 -2.56604,-5.529 -1.29573,-9.6604 -7.64382,-13.04109 -24.60952,-13.10585 l -8.33333,-0.0318 v 20.59106 c 0,19.76672 0.11867,20.67415 2.96335,22.66667 1.62982,1.14157 4.62982,2.0756 6.66666,2.0756 2.40295,0 3.70332,0.70227 3.70332,2 0,1.67521 -2.81481,2 -17.33333,2 -14.51852,0 -17.33333,-0.32479 -17.33333,-2 z m 89.33333,0 c 0,-1.31629 1.31692,-2 3.8523,-2 2.11874,0 5.13378,-1.05 6.70008,-2.33333 2.81022,-2.30256 2.84294,-2.86976 2.48104,-43 l -0.36675,-40.66667 -6.33333,-1.90173 c -3.48334,-1.04596 -6.33334,-2.39596 -6.33334,-3 0,-0.60406 8.1,-1.09827 18,-1.09827 9.9,0 18,0.53581 18,1.19068 0,1.41093 -3.26985,2.80932 -6.56906,2.80932 -1.29303,0 -3.34396,1.09724 -4.55762,2.43832 -1.94852,2.15308 -2.20665,7.0472 -2.20665,41.83675 0,43.42397 -0.30875,41.86004 8.54769,43.29724 2.78362,0.45172 4.78564,1.5403 4.78564,2.60214 0,1.45503 -3.6534,1.82555 -18,1.82555 -15.1111,0 -18,-0.32099 -18,-2 z m 49.33334,0.14839 c 0,-1.05926 1.99006,-2.22495 4.65046,-2.72404 2.55775,-0.47984 5.25775,-2.00718 6,-3.39407 0.82123,-1.53448 1.34954,-17.61208 1.34954,-41.06931 0,-42.38148 0.17821,-41.45174 -8.33334,-43.47396 -6.75137,-1.60404 -3.79145,-3.48701 5.48136,-3.48701 h 9.14803 l 29.18533,38.63787 c 16.0518,21.25082 29.6352,38.65082 30.1852,38.66666 0.55,0.0159 1,-15.13769 1,-33.67452 0,-38.08126 -0.1365,-38.6714 -9.284,-40.13414 -10.6394,-1.7013 -5.4742,-3.49587 10.0618,-3.49587 11.7594,0 15.3135,0.39767 14.8956,1.66667 -0.3019,0.91666 -2.0019,1.87137 -3.7778,2.12157 -1.7759,0.25019 -4.2789,1.39319 -5.5622,2.53997 -2.1328,1.90584 -2.3334,5.85835 -2.3334,45.9762 0,37.61022 -0.2761,43.82943 -1.9294,43.46002 -1.0611,-0.2371 -15.9111,-19.0311 -32.9999,-41.76443 l -31.07062,-41.33333 -0.38773,33.33333 c -0.21325,18.33333 -0.0393,35.26609 0.38656,37.62835 0.90213,5.00413 5.04448,8.37165 10.29785,8.37165 2.40295,0 3.70332,0.70227 3.70332,2 0,1.66184 -2.59258,2 -15.33333,2 -12.1946,0 -15.33333,-0.37903 -15.33333,-1.85161 z m 105.33328,-0.14839 c 0,-1.1 1.1191,-2 2.4868,-2 1.3678,0 4.0678,-1.24355 6,-2.76344 l 3.5132,-2.76344 v -39.02991 c 0,-42.91616 0.1866,-41.932 -8.3333,-43.9562 -2.0167,-0.47913 -3.6667,-1.45972 -3.6667,-2.17908 0,-0.81021 9.8749,-1.30793 25.95,-1.30793 23.1071,0 26.7708,0.30712 33.4426,2.80335 18.8253,7.04345 28.1238,23.70848 27.041,48.46396 -0.7746,17.71162 -6.6181,28.80365 -19.7669,37.52145 -8.3475,5.53447 -18.4886,7.21124 -43.6135,7.21124 -19.6028,0 -23.0532,-0.29933 -23.0532,-2 z m 55.2045,-5.3334 c 7.3412,-3.52337 13.8971,-10.53493 17.9691,-19.21796 3.1274,-6.66901 3.4849,-8.98375 3.4152,-22.11531 -0.063,-11.92617 -0.5994,-15.81341 -2.8686,-20.8039 -3.3573,-7.3833 -9.6164,-14.75704 -15.7376,-18.54018 -8.8687,-5.48117 -29.8666,-6.58141 -34.6333,-1.8147 -1.7091,1.70904 -2.016,8.07929 -2.016,41.84508 0,39.7713 0,39.83232 3,42.00308 4.1589,3.01365 23.5405,2.16225 30.8712,-1.35611 z m 44.7955,5.3334 c 0,-1.1 1.1191,-2 2.4868,-2 1.3678,0 4.0678,-1.24355 6,-2.76344 l 3.5132,-2.76344 v -39.02991 c 0,-35.48813 -0.2117,-39.21912 -2.3333,-41.115 -1.2834,-1.14678 -3.7864,-2.28978 -5.5623,-2.53997 -1.7759,-0.2502 -3.4759,-1.20491 -3.7778,-2.12157 -0.4298,-1.3051 7.0838,-1.66667 34.6333,-1.66667 h 35.1822 l 4.2623,10.42469 c 6.5165,15.93802 5.5688,17.58803 -3.4904,6.077 -3.1589,-4.01384 -7.7559,-7.96096 -11.1453,-9.56961 -10.5032,-4.98507 -31.7747,-5.40229 -36.4618,-0.71519 -1.5466,1.5466 -1.9736,5.84732 -1.9736,19.87835 v 17.90476 l 10.3334,-0.0752 c 16.7814,-0.12227 22.9276,-3.75727 22.9803,-13.59141 0.012,-2.36164 0.7315,-3.66667 2.0197,-3.66667 1.6825,0 2,2.96296 2,18.66667 0,15.7037 -0.3175,18.66666 -2,18.66666 -1.3445,0 -2,-1.34473 -2,-4.10256 0,-2.75664 -1.2787,-5.3812 -3.8975,-8 -3.765,-3.76513 -4.3311,-3.89749 -16.6666,-3.89749 h -12.7693 v 19.96927 c 0,25.00946 -0.3555,24.59313 20.3486,23.82672 11.9524,-0.44246 14.4692,-0.96448 19.8487,-4.1171 3.3884,-1.9857 8.8718,-6.6258 12.1854,-10.3113 3.3136,-3.68551 6.383,-6.70092 6.821,-6.70092 1.6427,0 0.6725,4.1459 -3.4123,14.5814 l -4.2086,10.75193 h -36.4581 c -31.5182,0 -36.458,-0.27099 -36.458,-2 z m 94.6667,0.14839 c 0,-1.05926 1.99,-2.22495 4.6504,-2.72404 2.5578,-0.47984 5.2578,-2.00718 6,-3.39407 1.4502,-2.70967 1.9528,-76.90689 0.5458,-80.57343 -0.4421,-1.15201 -3.1421,-2.72421 -6,-3.49377 -10.7479,-2.89409 -5.0882,-3.96308 20.9824,-3.96308 16.5141,0 28.1513,0.59104 31.5222,1.60096 14.9069,4.46623 21.1192,21.77539 12.7195,35.44049 -2.8281,4.60092 -9.4811,8.66536 -16.7537,10.23511 -2.3833,0.51443 -4.3333,1.1066 -4.3333,1.31595 0,0.45145 18.7228,33.44348 21.3639,37.64594 2.0309,3.23159 6.7289,5.76155 10.6988,5.76155 1.4322,0 2.604,0.9 2.604,2 0,1.58507 -1.9139,2 -9.2251,2 h -9.2251 l -13.1368,-23.66667 -13.1368,-23.66666 -8.9714,-0.39426 -8.9715,-0.39425 v 18.81524 c 0,10.34839 0.6073,19.94997 1.3495,21.33688 0.7423,1.38689 3.4423,2.91423 6,3.39407 2.6604,0.49909 4.6505,1.66478 4.6505,2.72404 0,1.48117 -3.3344,1.85161 -16.6667,1.85161 -13.3323,0 -16.6666,-0.37044 -16.6666,-1.85161 z m 55.6019,-52.76108 c 5.7834,-3.52632 8.8923,-9.91272 8.9346,-18.35331 0.04,-7.97311 -2.7732,-12.78127 -9.9295,-16.97153 -3.5059,-2.05278 -7.0317,-2.61742 -16.6512,-2.66667 -17.0296,-0.0872 -16.6225,-0.62845 -16.6225,22.10079 v 18.50341 l 15,-0.005 c 12.5247,-0.004 15.7044,-0.4345 19.2686,-2.60771 z M 4.3078576,122.92304 v -4 h 256.0000124 256 v 4 4 h -256 H 4.3078576 Z m 826.6666924,0 v -4 h 255.99995 256 v 4 4 h -256 -255.99995 z m -314.64734,-43.962121 -2.70707,-5.30627 5.01053,-2.51893 C 543.75426,58.505409 671.48973,0.16875891 672.86568,0.69675891 c 0.98116,0.37650999 2.30702,0.20944 2.94638,-0.37126 0.63938,-0.5807 36.26248,15.34431009 79.16249,35.38891009 42.9,20.04459 78.58801,36.6626 79.3067,36.92891 1.0763,0.39881 -2.85482,11.61305 -4.07093,11.61305 -0.19757,0 -33.25644,-15.37169 -73.46416,-34.1593 -40.20772,-18.78762 -75.21211,-35.02253 -77.78754,-36.07757 l -4.68258,-1.91827 -73.31742,34.2457 c -40.32457,18.83513 -75.25397,35.07247 -77.62088,36.08298 -4.29644,1.83429 -4.30789,1.82862 -7.01053,-3.46899 z"
       id="path894" />
  </g>
</svg>
