<?xml version="1.0" encoding="UTF-8" standalone="no"?>
<!-- Created with Inkscape (http://www.inkscape.org/) -->

<svg
   width="210mm"
   height="297mm"
   viewBox="0 0 210 297"
   version="1.1"
   id="svg230"
   sodipodi:docname="Property Finder Logo4.svg"
   inkscape:version="1.2.2 (b0a84865, 2022-12-01)"
   xmlns:inkscape="http://www.inkscape.org/namespaces/inkscape"
   xmlns:sodipodi="http://sodipodi.sourceforge.net/DTD/sodipodi-0.dtd"
   xmlns="http://www.w3.org/2000/svg"
   xmlns:svg="http://www.w3.org/2000/svg">
  <sodipodi:namedview
     id="namedview232"
     pagecolor="#ffffff"
     bordercolor="#000000"
     borderopacity="0.25"
     inkscape:showpageshadow="2"
     inkscape:pageopacity="0.0"
     inkscape:pagecheckerboard="0"
     inkscape:deskcolor="#d1d1d1"
     inkscape:document-units="mm"
     showgrid="false"
     inkscape:zoom="0.87659933"
     inkscape:cx="431.78222"
     inkscape:cy="543.00749"
     inkscape:window-width="1387"
     inkscape:window-height="1134"
     inkscape:window-x="0"
     inkscape:window-y="25"
     inkscape:window-maximized="0"
     inkscape:current-layer="layer1" />
  <defs
     id="defs227" />
  <g
     inkscape:label="Ebene 1"
     inkscape:groupmode="layer"
     id="layer1">
    <path
       style="fill:white;stroke-width:0.20111"
       d="M 4.3304086,55.759883 V 55.257104 H 105.1875 206.04459 v 0.502779 0.502765 H 105.1875 4.3304086 Z M 37.512395,48.030315 c -1.643061,-0.499789 -3.135788,-1.977034 -3.844631,-3.804721 -0.662702,-1.708731 -0.755023,-4.61026 -0.203758,-6.403811 0.573412,-1.865566 1.634165,-3.211305 3.136711,-3.97941 1.021539,-0.522223 1.399604,-0.605347 2.709259,-0.595705 2.601399,0.01912 4.326732,1.173918 5.521662,3.695622 0.596738,1.259331 0.625923,1.438221 0.625693,3.83483 -1.51e-4,2.430367 -0.02207,2.558532 -0.657261,3.857506 -0.772674,1.580148 -1.973407,2.726421 -3.386552,3.232971 -1.006552,0.360797 -2.979413,0.443085 -3.901123,0.162718 z m 2.825167,-0.414417 c 0.391711,-0.108803 1.023437,-0.42748 1.403834,-0.708116 3.620978,-2.671482 3.222696,-10.813192 -0.62499,-12.776141 -0.91553,-0.467068 -2.459316,-0.515531 -3.427318,-0.10759 -3.125103,1.31695 -4.351801,6.916501 -2.388751,10.904017 1.117669,2.270315 2.974229,3.260966 5.037225,2.687843 z m -35.20271,0.09951 c 0,-0.18771 0.1899378,-0.30167 0.5027762,-0.30167 0.2765283,0 0.6837781,-0.181004 0.9049992,-0.402217 0.384272,-0.384282 0.4022217,-0.670372 0.4022217,-6.410922 0,-6.543463 0.035899,-6.342381 -1.1755542,-6.584668 -1.569671,-0.313937 -0.3073579,-0.4785 3.6391623,-0.47442 4.7661008,0.0054 5.3910738,0.138992 6.4358628,1.380655 0.998829,1.187047 0.991383,3.379746 -0.01577,4.644557 -0.983408,1.234998 -1.778353,1.489674 -4.930927,1.579731 l -2.784442,0.07958 0.069442,2.709577 c 0.065712,2.563649 0.095013,2.730286 0.5442259,3.093871 0.2611291,0.211369 0.7362536,0.384295 1.0558329,0.384295 0.3824162,0 0.5810512,0.103146 0.5810512,0.30167 0,0.252668 -0.4245661,0.301656 -2.61444,0.301656 -2.1898739,0 -2.6144405,-0.04901 -2.6144405,-0.301656 z m 8.861045,-7.843325 c 1.782942,-1.678946 1.569028,-4.459526 -0.421607,-5.480273 -1.205005,-0.617896 -4.1172704,-0.659047 -4.8474402,-0.06854 -0.45376,0.366978 -0.4776749,0.514615 -0.5401607,3.334609 l -0.065389,2.950611 2.6169439,-0.06652 c 2.592243,-0.06598 2.62299,-0.07231 3.257646,-0.669887 z m 4.41227,7.843325 c 0,-0.179846 0.184966,-0.30167 0.458028,-0.30167 0.251916,0 0.659166,-0.140877 0.904998,-0.313075 0.445176,-0.31181 0.446972,-0.337556 0.446972,-6.410908 0,-6.640685 0.03687,-6.431349 -1.175556,-6.673824 -0.348943,-0.06975 -0.634442,-0.212635 -0.634442,-0.317425 0,-0.115939 1.633916,-0.165155 4.173049,-0.125769 3.842195,0.05965 4.2448,0.100454 5.078049,0.51436 1.254652,0.623188 1.867457,1.585642 1.867457,2.932997 0,1.769758 -0.911666,2.98142 -2.616036,3.476901 -0.58378,0.169707 -1.061418,0.354145 -1.061418,0.409852 0,0.330877 3.364315,5.983322 3.702053,6.219885 0.225313,0.157817 0.661023,0.286939 0.968246,0.286939 0.362442,0 0.558582,0.105974 0.558582,0.30167 0,0.238651 -0.286461,0.301657 -1.371489,0.301657 h -1.371489 l -1.997118,-3.623447 -1.997116,-3.623433 -1.407777,0.05373 -1.407777,0.05373 v 2.883902 c 0,2.788256 0.01574,2.896641 0.47478,3.268049 0.261129,0.211276 0.691004,0.384147 0.955277,0.384147 0.293035,0 0.480497,0.117689 0.480497,0.30167 0,0.252049 -0.413394,0.301657 -2.513886,0.301657 -2.10049,0 -2.513884,-0.04955 -2.513884,-0.301657 z m 8.853865,-8.303768 c 1.753433,-1.753437 1.039125,-4.612038 -1.312209,-5.251358 -1.349538,-0.366938 -3.398993,-0.282347 -3.94966,0.163028 -0.450042,0.363976 -0.478211,0.526384 -0.540639,3.117208 l -0.06586,2.733235 h 2.553129 2.553126 z m 20.508317,8.303768 c 0,-0.18771 0.189936,-0.30167 0.502778,-0.30167 0.276525,0 0.683775,-0.181004 0.904997,-0.402217 0.384274,-0.384282 0.402223,-0.670372 0.402223,-6.410922 0,-6.543463 0.0359,-6.342381 -1.175556,-6.584668 -1.56967,-0.313937 -0.307357,-0.4785 3.639163,-0.47442 4.766102,0.0054 5.391074,0.138992 6.435865,1.380655 0.998829,1.187047 0.991382,3.379746 -0.01577,4.644557 -0.983408,1.234998 -1.778354,1.489674 -4.930929,1.579731 l -2.784441,0.07958 0.06944,2.709577 c 0.06571,2.563649 0.09501,2.730286 0.544225,3.093871 0.261131,0.211369 0.736257,0.384295 1.055832,0.384295 0.382419,0 0.581054,0.103146 0.581054,0.30167 0,0.252668 -0.424568,0.301656 -2.614441,0.301656 -2.189874,0 -2.614441,-0.04901 -2.614441,-0.301656 z m 8.861044,-7.843325 c 1.782945,-1.678946 1.569029,-4.459526 -0.421604,-5.480273 -1.205006,-0.617896 -4.117272,-0.659047 -4.847444,-0.06854 -0.453758,0.366978 -0.477672,0.514615 -0.540159,3.334609 l -0.06539,2.950611 2.616944,-0.06652 c 2.592245,-0.06598 2.622992,-0.07231 3.257645,-0.669887 z m 4.613381,7.843325 c 0,-0.179846 0.184968,-0.30167 0.45803,-0.30167 0.251916,0 0.659166,-0.140877 0.904998,-0.313075 0.444924,-0.311634 0.446971,-0.340559 0.446971,-6.320621 0,-6.577989 0.01912,-6.470938 -1.204596,-6.739711 -1.613809,-0.354456 -0.229435,-0.503156 4.673758,-0.501998 l 5.279158,0.0011 0.646737,1.63797 c 0.355705,0.90089 0.600351,1.713027 0.543657,1.804769 -0.05669,0.0917 -0.488297,-0.306545 -0.959118,-0.885054 -0.470818,-0.57851 -1.258463,-1.277509 -1.750319,-1.553325 -0.797792,-0.447382 -1.126686,-0.501635 -3.048135,-0.502779 -2.918566,-0.0013 -2.854688,-0.07662 -2.940216,3.447613 l -0.06629,2.731794 2.15018,-0.07958 c 2.056279,-0.07608 2.171154,-0.103954 2.630458,-0.63796 0.264154,-0.307056 0.480279,-0.726873 0.480279,-0.93287 0,-0.515423 0.207667,-1.010796 0.423739,-1.010796 0.09877,0 0.179593,1.274547 0.179593,2.832302 0,2.144762 -0.05977,2.8124 -0.24622,2.750243 -0.135419,-0.04511 -0.300706,-0.346807 -0.367298,-0.670359 -0.320121,-1.555385 -0.764596,-1.789148 -3.408699,-1.792689 L 64.362,40.676012 v 2.94579 c 0,3.837133 -0.03247,3.793168 2.796444,3.787014 2.730245,-0.0054 3.854029,-0.499736 5.429897,-2.385931 0.38276,-0.45814 0.748879,-0.7473 0.813596,-0.642578 0.06472,0.104762 -0.1755,0.965713 -0.53382,1.913328 l -0.651489,1.722924 h -5.485923 c -4.742301,0 -5.485924,-0.0408 -5.485924,-0.301656 z m 14.278871,0 c 0,-0.179846 0.184966,-0.30167 0.458028,-0.30167 0.251918,0 0.659167,-0.140877 0.904999,-0.313075 0.445175,-0.31181 0.44697,-0.337556 0.44697,-6.410908 0,-6.640685 0.03687,-6.431349 -1.175554,-6.673824 -0.348943,-0.06975 -0.634443,-0.212635 -0.634443,-0.317425 0,-0.115939 1.633918,-0.165155 4.17305,-0.125769 3.842196,0.05965 4.2448,0.100454 5.078049,0.51436 1.254651,0.623188 1.867456,1.585642 1.867456,2.932997 0,1.769758 -0.911666,2.98142 -2.616035,3.476901 -0.583781,0.169707 -1.061419,0.354145 -1.061419,0.409852 0,0.330877 3.364317,5.983322 3.702055,6.219885 0.225311,0.157817 0.661019,0.286939 0.968244,0.286939 0.362444,0 0.558583,0.105974 0.558583,0.30167 0,0.238651 -0.286462,0.301657 -1.37149,0.301657 h -1.371489 l -1.997117,-3.623447 -1.997117,-3.623433 -1.407777,0.05373 -1.407775,0.05373 v 2.883902 c 0,2.788256 0.01574,2.896641 0.474779,3.268049 0.26113,0.211276 0.691004,0.384147 0.955276,0.384147 0.293035,0 0.480499,0.117689 0.480499,0.30167 0,0.252049 -0.413397,0.301657 -2.513886,0.301657 -2.100491,0 -2.513886,-0.04955 -2.513886,-0.301657 z m 8.853866,-8.303768 c 1.753434,-1.753437 1.039125,-4.612038 -1.31221,-5.251358 -1.349536,-0.366938 -3.398992,-0.282347 -3.949659,0.163028 -0.450042,0.363976 -0.47821,0.526384 -0.540638,3.117208 l -0.06586,2.733235 h 2.553129 2.553126 z m 9.648331,8.303768 c 0,-0.217873 0.223457,-0.30167 0.804444,-0.30167 0.536297,0 0.938517,-0.134117 1.206666,-0.402217 0.383655,-0.383662 0.402221,-0.670372 0.402221,-6.212169 0,-5.424351 -0.02556,-5.841435 -0.38508,-6.284709 -0.32645,-0.402487 -0.55402,-0.470865 -1.494574,-0.449091 -1.479595,0.0342 -2.65444,0.645299 -3.633555,1.889898 -0.432905,0.550285 -0.857386,1.000521 -0.943294,1.000521 -0.131128,0 0.417629,-1.816847 0.926326,-3.06694 0.131869,-0.324063 0.616093,-0.351937 6.112347,-0.351937 h 5.969127 l 0.5378,1.640474 c 0.58506,1.784597 0.5421,2.405362 -0.0929,1.342616 -0.55767,-0.933288 -1.3571,-1.755552 -2.06897,-2.128024 -0.88712,-0.464186 -2.771075,-0.445335 -3.299647,0.03299 -0.409301,0.370412 -0.420901,0.547107 -0.420901,6.411177 0,6.757203 -0.04415,6.558249 1.458054,6.570987 0.533452,0.004 0.754166,0.09466 0.754166,0.308066 0,0.254272 -0.458087,0.301657 -2.916107,0.301657 -2.458022,0 -2.916109,-0.0474 -2.916109,-0.301657 z m 15.284428,0 c 0,-0.20737 0.20801,-0.30167 0.66545,-0.30167 1.27148,0 1.43815,-0.306517 1.51389,-2.784135 l 0.0677,-2.213934 -1.96106,-3.685119 c -1.07858,-2.026817 -2.14164,-3.887373 -2.36234,-4.134548 -0.2207,-0.247174 -0.70355,-0.506131 -1.073,-0.575439 -1.42718,-0.267737 -0.56032,-0.483469 1.94272,-0.483469 2.54384,0 3.45903,0.235985 1.78564,0.460429 -0.45583,0.06113 -0.91006,0.192424 -1.00939,0.29176 -0.16392,0.163917 3.19678,6.874246 3.44707,6.882756 0.23127,0.0081 3.64343,-6.259137 3.58269,-6.580198 -0.0455,-0.240832 -0.36546,-0.408735 -1.02008,-0.535406 -1.61018,-0.311553 -1.06644,-0.519341 1.35906,-0.519341 2.18206,0 2.98948,0.21343 1.75971,0.465156 -0.30417,0.06221 -0.70803,0.231945 -0.89745,0.377077 -0.18943,0.145133 -1.2528,1.86939 -2.36306,3.831693 l -2.01864,3.567833 v 2.484607 c 0,2.785239 0.15913,3.150278 1.37333,3.150278 0.43283,0 0.63777,0.09695 0.63777,0.30167 0,0.253248 -0.43574,0.301657 -2.71499,0.301657 -2.27926,0 -2.715,-0.04834 -2.715,-0.301657 z m 17.29553,0 c 0,-0.199479 0.19951,-0.30167 0.58897,-0.30167 1.21674,0 1.22103,-0.02356 1.22103,-6.726959 0,-6.63744 0.0368,-6.428373 -1.17556,-6.670848 -1.64015,-0.328036 -0.20462,-0.478837 4.5581,-0.478837 h 5.19254 l 0.64016,1.458042 c 0.3521,0.801931 0.63996,1.58975 0.63969,1.750704 -1.5e-4,0.160955 -0.43038,-0.167781 -0.95578,-0.730522 -1.39946,-1.498924 -2.36582,-1.918634 -4.67582,-2.030816 -1.70113,-0.08254 -1.96567,-0.04807 -2.41334,0.315068 -0.49078,0.398111 -0.50277,0.471808 -0.50277,3.090721 v 2.682901 l 2.08923,-0.01212 c 2.02217,-0.01212 2.10447,-0.02976 2.56416,-0.564263 0.26662,-0.309951 0.47493,-0.811868 0.47493,-1.144267 0,-0.392253 0.1018,-0.59211 0.30167,-0.59211 0.25314,0 0.30167,0.433337 0.30167,2.693472 0,2.208683 -0.0543,2.714316 -0.30167,2.809249 -0.23226,0.08914 -0.30167,-0.04403 -0.30167,-0.578658 0,-0.482742 -0.17849,-0.894157 -0.58559,-1.349792 l -0.5856,-0.655398 -1.97856,-0.0011 -1.97857,-0.0011 v 2.945709 c 0,2.614657 0.043,2.99323 0.38311,3.368597 0.24383,0.269164 0.62768,0.422901 1.05583,0.422901 0.4639,0 0.67272,0.09359 0.67272,0.30167 0,0.252682 -0.42457,0.30167 -2.61444,0.30167 -2.18987,0 -2.61444,-0.04901 -2.61444,-0.30167 z m 13.47442,0 c 0,-0.205646 0.20807,-0.302653 0.65361,-0.304753 1.49952,-0.0067 1.55911,-0.262593 1.55565,-6.670633 -0.003,-6.269331 -0.0284,-6.392851 -1.35754,-6.688501 -1.53057,-0.340465 -0.90048,-0.514427 1.86329,-0.514427 2.65469,0 3.52609,0.229831 1.90792,0.50321 -0.47485,0.08026 -0.88877,0.289025 -1.00555,0.507236 -0.11769,0.21996 -0.19849,2.785926 -0.19849,6.305472 0,5.904655 0.003,5.936165 0.44697,6.247651 0.24582,0.172198 0.69834,0.313075 1.00555,0.313075 0.36246,0 0.55858,0.105975 0.55858,0.30167 0,0.253248 -0.43573,0.301657 -2.71498,0.301657 -2.27926,0 -2.71501,-0.04834 -2.71501,-0.301657 z m 7.44111,0.0067 c 0,-0.186687 0.18061,-0.308241 0.45802,-0.308241 0.25193,0 0.65917,-0.140891 0.90501,-0.313075 0.44493,-0.311635 0.44696,-0.340572 0.44696,-6.320622 0,-6.577989 0.0191,-6.470951 -1.20459,-6.739724 -1.05889,-0.232565 -0.65299,-0.503277 0.75209,-0.501608 l 1.3575,0.0013 4.525,5.981423 4.525,5.981422 0.0536,-5.309839 c 0.0598,-5.910459 0.0579,-5.919454 -1.28795,-6.17192 -1.35438,-0.254069 -0.6242,-0.484318 1.53594,-0.484318 2.16176,0 2.86605,0.230464 1.55861,0.51001 -1.2008,0.256762 -1.15639,-0.02195 -1.15639,7.25737 0,4.305008 -0.0715,6.712591 -0.1995,6.712591 -0.10975,0 -2.2869,-2.782869 -4.83814,-6.184147 -2.55124,-3.401291 -4.72395,-6.214337 -4.82826,-6.251206 -0.1158,-0.04094 -0.18965,2.078134 -0.18965,5.442354 0,5.266493 0.0181,5.52879 0.41006,5.949522 0.27285,0.292877 0.64857,0.440151 1.12287,0.440151 0.48067,0 0.68564,0.08187 0.62939,0.251389 -0.0586,0.1764 -0.75347,0.268356 -2.32953,0.308255 -1.90854,0.04834 -2.24612,0.01077 -2.24612,-0.25139 z m 15.88776,-0.0067 c 0,-0.18771 0.18993,-0.30167 0.50278,-0.30167 0.27653,0 0.68378,-0.181004 0.905,-0.402217 0.38399,-0.384012 0.40221,-0.670372 0.40221,-6.320635 0,-6.480202 0.0178,-6.382092 -1.20459,-6.650555 -0.33296,-0.07312 -0.6054,-0.216285 -0.6054,-0.318112 0,-0.274456 7.08135,-0.230558 8.20678,0.0509 2.91976,0.730173 4.62446,3.005941 4.81996,6.434675 0.13277,2.328742 -0.41998,4.170972 -1.668,5.55906 -1.61779,1.799369 -3.26545,2.246212 -8.2918,2.248703 -2.59276,0.0011 -3.06694,-0.04511 -3.06694,-0.300135 z m 8.09874,-0.684066 c 1.27223,-0.545344 2.19807,-1.433293 2.82109,-2.705644 1.03772,-2.119325 1.05901,-4.920171 0.0537,-7.068057 -1.062,-2.269008 -2.60876,-3.190298 -5.38448,-3.207144 -2.64259,-0.01602 -2.47181,-0.475538 -2.47181,6.650973 v 5.943369 l 0.47477,0.384443 c 0.66606,0.539351 3.25053,0.540536 4.50675,0.0027 z m 6.98457,0.684066 c 0,-0.179846 0.18496,-0.30167 0.45802,-0.30167 0.25193,0 0.65918,-0.140877 0.90501,-0.313075 0.44492,-0.311634 0.44696,-0.340559 0.44696,-6.320621 0,-6.577989 0.0191,-6.470938 -1.20459,-6.739711 -1.61381,-0.354456 -0.22943,-0.503156 4.67376,-0.501998 l 5.27917,0.0011 0.64674,1.63797 c 0.35569,0.90089 0.60034,1.713027 0.54365,1.804769 -0.0567,0.0917 -0.48829,-0.306545 -0.95912,-0.885054 -0.47081,-0.57851 -1.25847,-1.277509 -1.75031,-1.553325 -0.79781,-0.447382 -1.1267,-0.501635 -3.04814,-0.502779 -2.91857,-0.0013 -2.85469,-0.07662 -2.94023,3.447613 l -0.0662,2.731794 2.15018,-0.07958 c 2.05628,-0.07608 2.17116,-0.103954 2.63046,-0.63796 0.26416,-0.307056 0.48029,-0.726873 0.48029,-0.93287 0,-0.515423 0.20766,-1.010796 0.42373,-1.010796 0.0988,0 0.17959,1.274547 0.17959,2.832302 0,2.144762 -0.0598,2.8124 -0.24621,2.750243 -0.13543,-0.04511 -0.30072,-0.346807 -0.36731,-0.670359 -0.32011,-1.555385 -0.76459,-1.789148 -3.40869,-1.792689 l -1.70943,-0.0027 v 2.94579 c 0,3.837133 -0.0325,3.793168 2.79642,3.787014 2.72775,-0.0054 3.99652,-0.568303 5.4829,-2.430219 0.35042,-0.438938 0.69138,-0.710284 0.7577,-0.60299 0.0664,0.107321 -0.17259,0.970413 -0.53092,1.918028 l -0.65148,1.722924 h -5.48597 c -4.7423,0 -5.48593,-0.0408 -5.48593,-0.301656 z m 14.27888,0 c 0,-0.179846 0.18496,-0.30167 0.45802,-0.30167 0.25192,0 0.65916,-0.140877 0.90501,-0.313075 0.44517,-0.31181 0.44696,-0.337556 0.44696,-6.410908 0,-6.640685 0.0369,-6.431349 -1.17556,-6.673824 -0.34894,-0.06975 -0.63443,-0.212635 -0.63443,-0.317425 0,-0.115939 1.63391,-0.165155 4.17304,-0.125769 3.8422,0.05965 4.24481,0.100454 5.07806,0.51436 1.25464,0.623188 1.86743,1.585642 1.86743,2.932997 0,1.769758 -0.91166,2.98142 -2.61603,3.476901 -0.58376,0.169707 -1.06141,0.34853 -1.06141,0.397383 0,0.308753 3.15997,5.698187 3.55712,6.066795 0.27624,0.256398 0.74413,0.452498 1.07964,0.452498 0.39225,0 0.59212,0.1018 0.59212,0.30167 0,0.238651 -0.28645,0.301657 -1.37148,0.301657 h -1.3715 l -1.99711,-3.623447 -1.99711,-3.623433 -1.40778,0.05373 -1.40779,0.05373 v 2.883902 c 0,2.788256 0.0158,2.896641 0.47479,3.268049 0.26114,0.211276 0.69101,0.384147 0.95527,0.384147 0.29303,0 0.48051,0.117689 0.48051,0.30167 0,0.252049 -0.41339,0.301657 -2.51389,0.301657 -2.10049,0 -2.51388,-0.04955 -2.51388,-0.301657 z m 8.85386,-8.303768 c 1.75344,-1.753437 1.03912,-4.612038 -1.31221,-5.251358 -1.34953,-0.366938 -3.39899,-0.282347 -3.94966,0.163028 -0.45005,0.363976 -0.47821,0.526384 -0.54063,3.117208 l -0.0659,2.733235 h 2.55312 2.55312 z M 4.3304086,22.073769 V 21.470443 H 42.843133 81.355859 v 0.603326 0.60334 H 42.843133 4.3304086 Z m 124.6887214,0 v -0.603326 h 38.51272 38.51274 v 0.603326 0.60334 H 167.53185 129.01913 Z M 81.662148,15.517715 c -0.168459,-0.403187 -0.304689,-0.789879 -0.302737,-0.859334 0.0032,-0.114323 2.656487,-1.365184 18.784289,-8.8553475 3.45152,-1.602973 5.03848,-2.24741 5.09761,-2.070027 0.0647,0.194241 0.15339,0.201526 0.36047,0.02962 0.21406,-0.177665 2.85915,0.97592 11.99681,5.232048 6.44722,3.0029785 11.77832,5.5226225 11.84691,5.5992285 0.0686,0.07662 -0.0268,0.472939 -0.21203,0.880745 l -0.33674,0.741484 -11.61772,-5.417308 c -6.38975,-2.9795045 -11.71327,-5.4173045 -11.83005,-5.4173045 -0.16965,0 -21.842647,10.0130255 -23.133203,10.6876395 -0.282193,0.147515 -0.404753,0.04417 -0.653609,-0.551498 z"
       id="path216" />
  </g>
</svg>
